<?xml version="1.0" standalone="no"?>
<!DOCTYPE svg PUBLIC "-//W3C//DTD SVG 20010904//EN"
 "http://www.w3.org/TR/2001/REC-SVG-20010904/DTD/svg10.dtd">
<svg version="1.0" xmlns="http://www.w3.org/2000/svg"
 width="996.000000pt" height="260.000000pt" viewBox="0 0 996.000000 260.000000"
 preserveAspectRatio="xMidYMid meet">
<metadata>
Created by potrace 1.16, written by Peter Selinger 2001-2019
</metadata>
<g transform="translate(0.000000,260.000000) scale(0.100000,-0.100000)"
fill="#000000" stroke="none">
<path d="M1305 2583 c-71 -17 -583 -168 -925 -273 -52 -16 -129 -38 -170 -50
-87 -25 -156 -48 -187 -63 -21 -10 -23 -17 -23 -97 0 -80 2 -87 23 -98 22 -11
54 -21 314 -102 l132 -40 3 -413 3 -412 29 -55 c54 -106 137 -173 270 -220 92
-33 175 -39 233 -18 27 10 38 10 53 0 11 -7 54 -12 98 -12 74 0 80 2 107 30
l29 30 353 0 c194 0 353 3 353 8 0 4 23 16 52 26 72 25 188 138 188 183 0 17
9 52 20 78 19 44 20 69 20 395 l0 349 113 35 c61 19 168 53 238 74 174 55 169
51 169 142 -1 66 -3 77 -23 91 -12 9 -134 51 -272 94 -137 42 -371 115 -520
161 -148 47 -327 102 -396 124 -100 32 -141 40 -195 39 -38 -1 -78 -3 -89 -6z
m136 -237 c30 -15 245 -84 444 -141 235 -68 385 -116 385 -125 0 -4 -10 -10
-22 -13 -31 -6 -438 -127 -634 -187 -155 -48 -239 -61 -259 -41 -9 9 -136 48
-632 198 -106 31 -189 60 -185 64 7 6 125 43 287 89 39 11 167 49 285 84 289
85 284 84 295 85 6 0 22 -5 36 -13z m739 -856 c0 -297 -1 -312 -22 -367 -15
-37 -42 -76 -78 -113 -77 -80 -113 -90 -308 -90 -143 0 -154 1 -147 18 6 16
23 63 95 272 18 52 36 100 40 105 4 6 13 27 19 48 7 20 17 37 22 37 5 0 9 39
9 86 0 80 -2 89 -26 110 -21 20 -35 24 -93 24 -42 0 -90 -8 -126 -20 -65 -22
-73 -24 -59 -11 5 5 59 23 119 41 61 18 207 63 325 100 118 38 218 69 223 69
4 1 7 -138 7 -309z m-1310 246 c80 -24 204 -61 275 -81 72 -20 144 -46 161
-56 24 -14 51 -19 110 -19 71 -1 77 -2 54 -14 -14 -7 -103 -40 -198 -72 -95
-32 -182 -67 -193 -77 -16 -15 -19 -32 -19 -98 0 -46 5 -88 12 -99 12 -18 3
-29 -82 -115 -53 -53 -103 -95 -113 -95 -38 0 -115 68 -144 128 l-28 57 -3
297 c-3 245 -1 297 10 293 7 -2 78 -24 158 -49z"/>
<path d="M2888 2345 c-5 -5 -8 -194 -8 -422 l0 -413 185 0 c211 0 263 12 330
77 73 71 80 100 80 338 l0 210 -28 58 c-32 65 -72 99 -149 129 -43 16 -85 21
-228 25 -96 3 -178 2 -182 -2z m379 -171 c55 -40 63 -73 63 -249 0 -176 -8
-209 -63 -249 -24 -17 -46 -22 -133 -24 l-104 -4 0 277 0 277 104 -4 c87 -2
109 -7 133 -24z"/>
<path d="M3630 2275 l0 -75 75 0 76 0 -3 73 -3 72 -72 3 -73 3 0 -76z"/>
<path d="M4550 2195 l0 -85 -35 0 -35 0 0 -65 0 -65 35 0 35 0 0 -192 c0 -133
4 -200 13 -217 23 -45 62 -65 137 -69 l70 -4 0 71 0 71 -28 0 c-49 0 -52 11
-52 182 l0 158 40 0 40 0 0 65 0 65 -40 0 -40 0 0 85 0 85 -70 0 -70 0 0 -85z"/>
<path d="M4073 2110 c-119 -25 -179 -109 -160 -227 14 -82 66 -115 217 -133
106 -12 143 -29 138 -63 -9 -63 -144 -73 -249 -19 l-58 30 -42 -54 c-49 -64
-47 -68 44 -110 57 -27 71 -29 182 -29 105 0 125 3 162 22 62 34 87 75 91 154
5 76 -15 130 -56 157 -28 18 -129 41 -182 42 -51 0 -107 18 -114 36 -3 9 5 26
20 41 24 24 31 25 92 21 42 -3 84 -14 111 -28 l45 -22 42 48 c24 27 43 52 44
57 0 13 -63 47 -115 62 -67 19 -161 26 -212 15z"/>
<path d="M5080 2114 c-58 -11 -117 -36 -144 -61 l-29 -27 48 -42 49 -42 37 19
c74 39 167 21 189 -37 19 -49 17 -51 -102 -57 -62 -3 -126 -10 -143 -17 -133
-51 -143 -263 -15 -327 58 -30 166 -31 228 -3 34 16 42 16 42 5 0 -12 15 -15
65 -15 l65 0 0 223 c0 241 -7 274 -61 324 -46 42 -158 70 -229 57z m160 -406
c0 -24 -4 -48 -8 -54 -15 -22 -52 -34 -109 -34 -74 0 -103 18 -103 65 0 52 27
65 132 65 l88 0 0 -42z"/>
<path d="M5772 2110 c-19 -4 -49 -23 -68 -41 l-34 -33 0 37 0 37 -70 0 -70 0
0 -300 0 -300 69 0 70 0 3 205 3 205 27 26 c47 48 145 29 168 -32 6 -14 10
-111 10 -215 l0 -189 70 0 70 0 0 219 c0 136 -4 231 -11 252 -16 46 -54 96
-87 113 -36 19 -109 27 -150 16z"/>
<path d="M6358 2110 c-97 -17 -168 -88 -189 -188 -6 -33 -9 -97 -7 -150 10
-179 82 -261 238 -270 49 -3 98 0 126 8 50 14 124 63 124 83 0 13 -80 97 -92
97 -4 0 -24 -12 -45 -26 -52 -35 -131 -31 -171 10 -25 24 -27 34 -30 124 -4
94 -3 100 23 130 46 55 118 61 195 16 l30 -18 47 46 47 47 -23 25 c-50 53
-175 84 -273 66z"/>
<path d="M6930 2109 c-69 -14 -120 -55 -155 -124 -29 -57 -30 -66 -30 -185 0
-121 1 -127 31 -180 21 -38 46 -64 78 -84 93 -58 264 -44 351 30 l30 25 -49
44 -48 43 -46 -24 c-76 -40 -159 -25 -195 35 -36 61 -35 61 164 61 l181 0 -4
88 c-8 169 -81 262 -214 276 -27 3 -69 1 -94 -5z m121 -139 c19 -11 40 -46 53
-87 7 -23 7 -23 -108 -23 -98 0 -116 2 -116 15 0 25 28 72 52 89 26 18 90 21
119 6z"/>
<path d="M3630 1810 l0 -300 75 0 75 0 0 300 0 300 -75 0 -75 0 0 -300z"/>
<path d="M3460 1208 l0 -101 -20 18 c-28 26 -106 25 -151 -1 -102 -58 -109
-279 -11 -336 43 -25 122 -24 156 3 21 17 26 18 26 5 0 -13 12 -16 55 -16 l55
0 0 265 0 265 -55 0 -55 0 0 -102z m-20 -178 c36 -36 23 -137 -20 -160 -74
-40 -127 74 -74 158 18 28 67 29 94 2z"/>
<path d="M6980 1045 l0 -265 55 0 55 0 0 93 c0 119 12 165 47 173 51 13 58 -1
61 -140 l3 -126 59 0 60 0 0 130 c0 139 -9 179 -49 214 -32 29 -111 27 -151
-2 l-30 -23 0 106 0 105 -55 0 -55 0 0 -265z"/>
<path d="M8230 1045 l0 -265 60 0 60 0 0 265 0 265 -60 0 -60 0 0 -265z"/>
<path d="M6374 1281 c-88 -23 -130 -77 -122 -160 6 -64 30 -91 119 -136 73
-37 92 -55 87 -82 -6 -32 -53 -46 -108 -33 -27 6 -57 18 -67 25 -29 23 -33 18
-33 -45 l0 -59 38 -10 c20 -6 69 -11 107 -11 123 1 195 54 195 145 0 69 -27
104 -120 155 -100 54 -115 73 -81 101 28 23 78 25 128 4 19 -8 39 -15 44 -15
5 0 9 24 9 54 0 40 -4 55 -16 60 -28 11 -148 15 -180 7z"/>
<path d="M2870 1030 l0 -250 150 0 150 0 0 50 0 50 -90 0 -90 0 0 50 0 50 80
0 80 0 0 50 0 50 -80 0 -80 0 0 50 0 50 85 0 85 0 0 50 0 50 -145 0 -145 0 0
-250z"/>
<path d="M4838 1227 c-35 -10 -38 -13 -38 -49 0 -36 -2 -38 -30 -38 -29 0 -30
-2 -30 -45 0 -43 1 -45 30 -45 l30 0 0 -111 c0 -109 0 -111 30 -140 27 -28 34
-30 92 -27 l63 3 3 47 3 48 -30 -6 c-40 -8 -51 15 -51 110 l0 76 40 0 40 0 0
45 0 45 -40 0 -40 0 0 50 c0 55 -2 57 -72 37z"/>
<path d="M4193 1141 c-55 -14 -96 -45 -121 -91 -19 -37 -23 -56 -20 -111 6
-114 67 -169 188 -169 85 0 100 10 100 66 0 40 -2 45 -17 39 -60 -23 -123 -11
-143 26 -20 36 -12 98 16 125 21 22 32 25 67 22 23 -3 50 -8 60 -12 15 -7 17
-2 17 42 0 28 -4 53 -8 56 -17 10 -108 15 -139 7z"/>
<path d="M4500 1143 c-14 -2 -40 -9 -57 -14 -31 -10 -33 -14 -33 -55 0 -24 2
-44 4 -44 2 0 20 7 39 15 39 16 95 20 113 7 6 -4 13 -14 16 -23 5 -14 -4 -18
-55 -24 -104 -11 -149 -47 -151 -118 -2 -81 35 -117 118 -117 29 0 52 7 70 21
21 17 26 18 26 5 0 -13 12 -16 56 -16 l56 0 -4 138 c-3 147 -11 174 -61 206
-24 16 -98 26 -137 19z"/>
<path d="M5354 1141 c-92 -23 -137 -85 -138 -186 0 -81 31 -137 91 -166 58
-28 168 -24 210 7 110 81 106 271 -6 329 -35 18 -117 26 -157 16z m102 -112
c14 -15 19 -36 19 -76 0 -45 -4 -58 -24 -74 -13 -10 -33 -19 -46 -19 -13 0
-33 9 -46 19 -20 16 -24 29 -24 74 0 67 22 97 70 97 20 0 39 -8 51 -21z"/>
<path d="M5836 1140 c-15 -5 -37 -17 -47 -26 -18 -16 -19 -16 -19 4 0 20 -5
22 -55 22 l-55 0 0 -180 0 -180 55 0 55 0 0 108 c0 124 11 155 55 160 47 6 55
-16 55 -150 l0 -118 60 0 60 0 0 130 c0 136 -9 179 -46 212 -24 21 -80 30
-118 18z"/>
<path d="M6766 1139 c-93 -23 -142 -99 -134 -209 7 -104 60 -153 172 -158 98
-5 116 5 116 65 0 43 -1 45 -22 38 -62 -20 -96 -18 -122 9 -37 36 -37 106 0
142 21 22 32 25 67 22 23 -3 50 -8 60 -12 15 -7 17 -2 17 42 0 28 -4 53 -8 56
-18 11 -109 14 -146 5z"/>
<path d="M7502 1139 c-86 -20 -141 -110 -128 -212 12 -102 77 -157 186 -157
33 0 75 6 93 14 127 53 137 281 15 339 -45 21 -115 28 -166 16z m112 -108 c42
-46 23 -154 -29 -167 -36 -9 -73 10 -86 43 -14 36 -5 99 17 124 22 25 76 25
98 0z"/>
<path d="M7935 1141 c-81 -21 -116 -56 -136 -136 -24 -97 24 -198 108 -226 52
-17 157 -8 190 17 111 82 106 267 -7 326 -42 21 -113 30 -155 19z m101 -112
c14 -15 19 -36 19 -76 0 -45 -4 -58 -24 -74 -13 -10 -33 -19 -46 -19 -13 0
-33 9 -46 19 -20 16 -24 29 -24 74 0 67 22 97 70 97 20 0 39 -8 51 -21z"/>
<path d="M8736 1139 c-94 -23 -140 -92 -134 -200 6 -113 56 -162 172 -167 98
-5 116 5 116 65 0 43 -1 45 -22 38 -54 -17 -94 -17 -116 2 -46 38 -45 128 3
159 25 16 80 16 118 0 15 -7 17 -2 17 42 0 28 -4 53 -8 56 -18 11 -109 14
-146 5z"/>
<path d="M9061 1140 c-40 -10 -77 -36 -105 -74 -17 -23 -21 -42 -21 -111 0
-69 4 -88 21 -111 41 -55 70 -69 152 -72 65 -2 83 1 116 20 118 69 115 271 -5
333 -34 18 -116 26 -158 15z m109 -110 c28 -28 28 -108 -1 -144 -25 -32 -70
-35 -99 -6 -15 15 -20 33 -20 75 0 65 22 95 70 95 17 0 39 -9 50 -20z"/>
<path d="M9545 1136 c-17 -7 -39 -21 -48 -30 -16 -16 -17 -16 -17 8 0 25 -3
26 -55 26 l-55 0 0 -180 0 -180 54 0 53 0 5 113 c5 129 15 157 58 157 43 0 50
-23 50 -154 l0 -116 60 0 60 0 0 118 c0 103 3 121 18 135 25 23 59 21 72 -2 5
-11 10 -72 10 -135 l0 -116 60 0 60 0 0 123 c0 67 -5 138 -10 158 -12 42 -44
74 -83 83 -36 9 -99 -9 -122 -34 -18 -20 -18 -20 -42 4 -13 13 -37 26 -54 30
-40 8 -38 8 -74 -8z"/>
<path d="M3652 984 l3 -156 33 -29 c41 -37 114 -41 156 -8 21 17 26 18 26 5 0
-13 12 -16 60 -16 l60 0 0 180 0 180 -60 0 -60 0 0 -123 c0 -109 -2 -126 -19
-141 -26 -23 -63 -17 -78 14 -8 16 -13 67 -13 138 l0 112 -56 0 -55 0 3 -156z"/>
<path d="M5040 960 l0 -180 55 0 55 0 0 180 0 180 -55 0 -55 0 0 -180z"/>
<path d="M422 658 c-18 -18 -16 -616 2 -640 12 -17 70 -18 962 -18 938 0 950
0 964 20 14 20 26 20 3778 20 4029 0 3807 -3 3826 45 3 9 6 127 6 261 l0 245
-25 24 -24 25 -3771 0 c-3339 0 -3773 2 -3786 15 -14 13 -135 15 -968 15 -727
0 -955 -3 -964 -12z m9490 -65 c16 -15 18 -36 18 -254 0 -234 0 -238 -22 -253
-20 -14 -395 -16 -3775 -16 l-3753 0 0 270 0 270 3757 0 c3481 0 3758 -1 3775
-17z m-9043 -129 c19 -16 31 -35 31 -50 0 -21 -5 -24 -34 -24 -26 0 -35 5 -39
21 -5 17 -12 20 -44 17 -24 -2 -38 -8 -38 -17 0 -17 18 -28 74 -41 58 -15 91
-49 91 -94 0 -54 -35 -87 -98 -94 -80 -7 -125 19 -146 86 -7 20 -4 22 29 22
28 0 38 -5 47 -25 10 -23 17 -26 52 -23 36 3 41 6 41 27 0 21 -9 27 -65 45
-54 18 -68 27 -82 54 -32 65 15 121 104 122 36 0 54 -6 77 -26z m401 11 c42
-22 68 -60 76 -112 9 -58 -8 -111 -46 -148 -24 -23 -41 -29 -87 -33 -99 -7
-156 49 -156 153 0 68 24 111 78 143 28 16 101 15 135 -3z m392 5 c20 -6 48
-24 62 -41 23 -27 26 -40 26 -103 0 -60 -4 -78 -22 -101 -30 -39 -77 -55 -158
-55 l-70 0 0 155 0 155 63 0 c34 0 79 -5 99 -10z m476 -22 l3 -28 -80 0 -81 0
0 -30 0 -30 75 0 75 0 0 -30 0 -30 -75 0 -75 0 0 -35 0 -35 80 0 80 0 0 -30 0
-30 -115 0 -115 0 0 155 0 156 113 -3 112 -3 3 -27z"/>
<path d="M4282 494 c-15 -11 -22 -25 -22 -50 0 -27 -4 -34 -20 -34 -13 0 -20
-7 -20 -20 0 -13 7 -20 20 -20 18 0 20 -7 20 -85 0 -78 2 -85 20 -85 18 0 20
7 20 85 0 78 2 85 20 85 13 0 20 7 20 20 0 14 -7 20 -21 20 -30 0 -23 54 9 58
14 2 22 10 22 23 0 24 -36 26 -68 3z"/>
<path d="M2980 350 c0 -143 1 -150 20 -150 18 0 20 7 20 73 0 78 9 97 47 97
31 0 43 -28 43 -104 0 -60 2 -66 21 -66 20 0 21 4 17 91 -2 76 -6 93 -22 105
-24 17 -78 18 -94 2 -9 -9 -12 1 -12 45 0 50 -2 57 -20 57 -19 0 -20 -7 -20
-150z"/>
<path d="M8370 451 l0 -49 -40 5 c-54 7 -86 -15 -101 -69 -22 -85 25 -157 93
-144 18 4 45 6 61 6 l27 0 0 150 c0 143 -1 150 -20 150 -17 0 -20 -7 -20 -49z"/>
<path d="M2576 469 c-18 -14 -26 -30 -26 -52 0 -44 10 -56 72 -92 60 -35 73
-66 37 -85 -20 -11 -53 -9 -91 5 -14 6 -18 2 -18 -18 0 -22 6 -27 35 -33 81
-15 135 16 135 77 0 40 -22 65 -89 101 -66 36 -47 83 31 76 45 -5 48 -4 48 18
0 22 -4 24 -54 24 -39 0 -60 -6 -80 -21z"/>
<path d="M3989 475 c-60 -33 -84 -122 -54 -201 28 -75 100 -103 178 -70 43 17
67 55 74 115 12 100 -40 171 -125 171 -26 -1 -59 -7 -73 -15z m118 -40 c40
-28 51 -123 20 -166 -34 -46 -88 -50 -128 -10 -24 24 -29 38 -29 76 0 74 30
114 85 115 17 0 40 -7 52 -15z"/>
<path d="M4554 471 c-35 -21 -64 -83 -64 -134 1 -55 35 -116 74 -132 107 -45
196 19 196 140 0 88 -51 145 -129 145 -27 0 -58 -8 -77 -19z m131 -45 c30 -30
40 -84 25 -130 -23 -70 -90 -87 -141 -37 -24 25 -29 38 -29 79 0 97 85 148
145 88z"/>
<path d="M5897 472 c-18 -20 -22 -68 -8 -92 7 -10 4 -18 -9 -27 -27 -19 -43
-74 -31 -106 16 -41 54 -60 107 -54 25 2 53 12 61 20 14 14 19 14 43 -5 34
-25 74 -21 78 8 3 18 -1 21 -21 17 -14 -3 -29 2 -37 12 -11 13 -11 22 4 52 10
20 20 58 23 85 5 44 4 48 -16 48 -16 0 -21 -6 -21 -27 0 -16 -5 -45 -11 -67
l-11 -39 -29 33 c-27 29 -29 34 -14 49 20 23 19 75 -1 95 -22 22 -87 21 -107
-2z"/>
<path d="M6310 345 l0 -145 68 0 c48 0 76 5 98 19 41 25 69 95 61 153 -11 82
-61 116 -169 117 l-58 1 0 -145z m156 74 c19 -18 24 -32 24 -74 0 -43 -5 -57
-26 -79 -15 -14 -32 -26 -39 -26 -7 0 -27 -3 -44 -6 l-31 -6 0 112 0 113 46
-6 c28 -3 54 -13 70 -28z"/>
<path d="M8030 345 l0 -145 75 0 c60 0 75 3 75 15 0 12 -13 15 -55 15 l-55 0
0 45 0 45 50 0 c43 0 50 3 50 20 0 17 -7 20 -50 20 l-50 0 0 45 0 45 55 0 c48
0 55 2 55 20 0 18 -7 20 -75 20 l-75 0 0 -145z"/>
<path d="M6913 463 c-7 -2 -13 -16 -13 -29 0 -17 -6 -24 -20 -24 -13 0 -20 -7
-20 -20 0 -13 7 -20 20 -20 18 0 20 -7 20 -79 0 -87 10 -105 57 -99 38 4 45
38 9 38 -25 0 -26 1 -26 70 0 68 1 70 25 70 18 0 25 5 25 20 0 15 -7 20 -25
20 -21 0 -25 5 -25 30 0 30 -4 33 -27 23z"/>
<path d="M9158 462 c-11 -2 -18 -13 -18 -28 0 -15 -6 -24 -15 -24 -8 0 -15 -9
-15 -20 0 -11 7 -20 15 -20 12 0 15 -15 15 -74 0 -84 14 -109 59 -104 34 4 41
35 9 40 -21 3 -23 9 -26 71 -3 66 -3 67 23 67 18 0 25 5 25 20 0 15 -7 20 -24
20 -20 0 -25 6 -28 28 -2 20 -8 27 -20 24z"/>
<path d="M2799 381 c-25 -25 -29 -37 -29 -81 0 -44 4 -56 29 -81 41 -40 121
-40 121 1 0 15 -6 17 -39 13 -32 -4 -41 -2 -55 18 -20 30 -21 68 0 98 13 19
24 22 55 19 35 -3 39 -1 39 19 0 21 -5 23 -46 23 -37 0 -51 -5 -75 -29z"/>
<path d="M3233 386 c-25 -22 -28 -31 -28 -86 0 -55 3 -64 28 -86 37 -32 96
-33 132 -1 28 24 43 85 31 131 -17 66 -107 90 -163 42z"/>
<path d="M3483 392 c-41 -31 -52 -120 -20 -163 50 -66 164 -40 181 42 8 43
-10 105 -37 124 -29 20 -96 19 -124 -3z"/>
<path d="M4820 305 c0 -98 1 -105 20 -105 18 0 20 7 20 73 0 78 9 97 47 97 30
0 43 -33 43 -111 0 -52 2 -59 20 -59 18 0 20 7 20 76 0 72 -10 111 -34 126
-17 12 -71 9 -84 -4 -9 -9 -12 -9 -12 0 0 7 -9 12 -20 12 -19 0 -20 -7 -20
-105z"/>
<path d="M5270 305 c0 -98 1 -105 20 -105 18 0 20 7 20 58 0 75 17 107 55 107
l30 0 3 -82 c3 -82 3 -83 29 -83 l26 0 -5 85 c-3 63 -9 89 -23 105 -20 22 -64
26 -96 10 -13 -7 -19 -7 -19 0 0 5 -9 10 -20 10 -19 0 -20 -7 -20 -105z"/>
<path d="M5526 379 c-44 -52 -32 -154 21 -178 51 -23 113 -9 113 26 0 20 -3
22 -19 13 -30 -15 -66 -12 -84 8 -31 34 -21 42 53 42 78 0 81 4 59 69 -13 37
-35 51 -82 51 -27 0 -41 -7 -61 -31z"/>
<path d="M6710 390 c-38 -38 -21 -74 49 -113 18 -9 31 -23 29 -30 -6 -16 -52
-21 -78 -7 -18 9 -20 8 -20 -14 0 -27 16 -36 64 -36 44 0 76 25 76 60 0 33
-16 52 -59 70 -20 8 -31 20 -31 32 0 17 5 20 40 16 36 -3 40 -1 40 19 0 21 -5
23 -45 23 -32 0 -51 -6 -65 -20z"/>
<path d="M7053 403 c-7 -2 -13 -16 -13 -29 0 -22 2 -23 20 -14 29 15 74 9 78
-11 2 -12 -8 -18 -40 -23 -23 -4 -50 -14 -60 -23 -26 -23 -23 -78 4 -97 24
-17 73 -21 82 -7 3 4 17 6 31 3 l25 -4 0 89 c0 74 -3 93 -18 106 -18 16 -81
22 -109 10z"/>
<path d="M7250 305 c0 -98 1 -105 20 -105 18 0 20 7 20 66 0 77 12 104 45 104
33 0 45 -27 45 -104 0 -59 2 -66 20 -66 18 0 20 7 20 85 0 72 -3 88 -20 105
-22 22 -79 27 -98 8 -9 -9 -12 -9 -12 0 0 7 -9 12 -20 12 -19 0 -20 -7 -20
-105z"/>
<path d="M7513 393 c-69 -56 -49 -183 31 -199 51 -9 86 2 86 27 0 18 -4 20
-30 14 -42 -9 -66 1 -80 35 -25 61 21 112 86 96 22 -6 25 -4 22 16 -3 20 -10
23 -48 26 -31 1 -52 -3 -67 -15z"/>
<path d="M7696 379 c-20 -24 -26 -41 -26 -81 0 -41 5 -54 29 -79 44 -43 131
-39 131 8 0 20 -3 22 -19 13 -32 -17 -69 -12 -85 12 -9 12 -16 26 -16 30 0 5
32 8 70 8 78 0 81 4 59 69 -13 37 -35 51 -82 51 -27 0 -41 -7 -61 -31z"/>
<path d="M8480 320 c0 -78 3 -93 21 -111 17 -17 28 -20 57 -15 21 3 49 6 65 6
l27 0 0 105 c0 98 -1 105 -20 105 -18 0 -20 -7 -20 -74 0 -78 -13 -106 -49
-106 -32 0 -41 22 -41 102 0 71 -2 78 -20 78 -19 0 -20 -7 -20 -90z"/>
<path d="M8740 381 c-26 -25 -30 -37 -30 -81 0 -44 4 -56 29 -81 41 -41 121
-40 121 1 0 16 -6 18 -35 13 -65 -10 -99 58 -59 116 14 20 23 22 56 18 36 -5
39 -3 36 16 -2 18 -11 23 -46 25 -36 3 -47 -1 -72 -27z"/>
<path d="M8938 403 c-11 -3 -18 -14 -18 -29 0 -26 9 -31 27 -13 16 16 67 7 71
-12 2 -13 -8 -18 -42 -23 -71 -11 -100 -72 -56 -116 20 -20 74 -27 84 -12 3 5
19 7 36 4 l30 -4 0 63 c0 71 -13 128 -32 141 -14 8 -71 9 -100 1z"/>
<path d="M9425 398 c-34 -20 -44 -41 -45 -96 0 -46 4 -58 29 -83 32 -31 71
-38 115 -18 27 13 56 64 56 98 0 34 -26 88 -48 100 -27 14 -82 14 -107 -1z"/>
<path d="M9630 305 c0 -98 1 -105 20 -105 18 0 20 7 20 58 0 75 17 107 55 107
l30 0 3 -82 c3 -82 3 -83 29 -83 l26 0 -6 86 c-3 62 -10 90 -22 105 -20 21
-65 25 -96 9 -13 -7 -19 -7 -19 0 0 5 -9 10 -20 10 -19 0 -20 -7 -20 -105z"/>
<path d="M1150 410 c-15 -15 -20 -33 -20 -75 0 -67 22 -95 75 -95 49 0 78 45
72 110 -8 73 -80 107 -127 60z"/>
<path d="M1570 336 l0 -96 38 0 c54 0 72 23 72 91 0 69 -14 89 -68 96 l-42 6
0 -97z"/>
</g>
</svg>
